<?xml version="1.0" encoding="UTF-8"?>
<svg id="Layer_1" data-name="Layer 1" xmlns="http://www.w3.org/2000/svg" viewBox="0 0 200 200">
  <defs>
    <style>
      .cls-1 {
        fill: #fff;
        stroke: #2d3193;
        stroke-miterlimit: 10;
      }

      .cls-2 {
        fill: #e62022;
      }

      .cls-2, .cls-3, .cls-4 {
        stroke-width: 0px;
      }

      .cls-3 {
        fill: #ed1b26;
      }

      .cls-4 {
        fill: #2d3193;
      }
    </style>
  </defs>
  <g>
    <path class="cls-4" d="M46.2,170.15v-8.72h5.98v1.47h-4.22v2.06h3.64v1.47h-3.64v3.71h-1.76Z"/>
    <path class="cls-4" d="M53.27,165.84c0-.89.13-1.63.4-2.24.2-.44.47-.84.81-1.2.34-.35.72-.61,1.13-.79.54-.23,1.17-.34,1.88-.34,1.28,0,2.31.4,3.08,1.2.77.8,1.16,1.91,1.16,3.32s-.38,2.51-1.15,3.3-1.79,1.19-3.07,1.19-2.33-.4-3.09-1.19-1.15-1.88-1.15-3.27ZM55.08,165.78c0,.99.23,1.74.68,2.25.46.51,1.03.76,1.74.76s1.28-.25,1.73-.76c.45-.51.68-1.26.68-2.27s-.22-1.75-.66-2.24c-.44-.49-1.02-.74-1.75-.74s-1.31.25-1.75.75c-.44.5-.67,1.25-.67,2.25Z"/>
    <path class="cls-4" d="M63.1,170.15v-8.72h3.71c.93,0,1.61.08,2.03.24.42.16.76.43,1.01.83s.38.86.38,1.37c0,.65-.19,1.19-.58,1.62-.38.43-.96.69-1.72.81.38.22.69.47.94.73.25.27.58.74,1,1.42l1.06,1.7h-2.11l-1.27-1.9c-.45-.68-.76-1.1-.93-1.28s-.34-.3-.53-.36c-.19-.07-.48-.1-.89-.1h-.36v3.64h-1.76ZM64.87,165.12h1.3c.84,0,1.37-.04,1.58-.11.21-.07.38-.19.49-.37.12-.17.18-.39.18-.65,0-.29-.08-.53-.23-.71-.16-.18-.38-.29-.66-.34-.14-.02-.57-.03-1.28-.03h-1.37v2.21Z"/>
    <path class="cls-4" d="M77.35,170.15v-3.67l-3.19-5.05h2.06l2.05,3.45,2.01-3.45h2.03l-3.21,5.06v3.66h-1.75Z"/>
    <path class="cls-4" d="M82.83,165.84c0-.89.13-1.63.4-2.24.2-.44.47-.84.81-1.2.34-.35.72-.61,1.13-.79.54-.23,1.17-.34,1.88-.34,1.28,0,2.31.4,3.08,1.2.77.8,1.16,1.91,1.16,3.32s-.38,2.51-1.15,3.3-1.79,1.19-3.07,1.19-2.33-.4-3.09-1.19-1.15-1.88-1.15-3.27ZM84.64,165.78c0,.99.23,1.74.68,2.25.46.51,1.03.76,1.74.76s1.28-.25,1.73-.76c.45-.51.68-1.26.68-2.27s-.22-1.75-.66-2.24c-.44-.49-1.02-.74-1.75-.74s-1.31.25-1.75.75c-.44.5-.67,1.25-.67,2.25Z"/>
    <path class="cls-4" d="M92.64,161.43h1.76v4.72c0,.75.02,1.23.07,1.46.08.36.25.64.54.86.28.22.67.32,1.16.32s.88-.1,1.13-.31c.25-.2.41-.46.46-.75.05-.3.08-.79.08-1.48v-4.82h1.76v4.58c0,1.05-.05,1.79-.14,2.22-.09.43-.27.8-.53,1.09-.26.3-.6.54-1.03.71-.43.18-.99.26-1.68.26-.83,0-1.46-.1-1.89-.29s-.77-.44-1.02-.75c-.25-.31-.41-.63-.49-.97-.12-.5-.17-1.24-.17-2.21v-4.65Z"/>
    <path class="cls-4" d="M101.46,170.15v-8.72h3.71c.93,0,1.61.08,2.03.24.42.16.76.43,1.01.83.25.4.38.86.38,1.37,0,.65-.19,1.19-.58,1.62-.38.43-.96.69-1.72.81.38.22.69.47.94.73.25.27.58.74,1,1.42l1.06,1.7h-2.11l-1.27-1.9c-.45-.68-.76-1.1-.93-1.28-.17-.18-.34-.3-.53-.36s-.48-.1-.89-.1h-.36v3.64h-1.76ZM103.22,165.12h1.3c.84,0,1.37-.04,1.58-.11s.37-.19.49-.37c.12-.17.18-.39.18-.65,0-.29-.08-.53-.24-.71-.16-.18-.38-.29-.66-.34-.14-.02-.57-.03-1.28-.03h-1.37v2.21Z"/>
    <path class="cls-4" d="M113.64,170.15v-8.72h1.76v3.43h3.45v-3.43h1.76v8.72h-1.76v-3.81h-3.45v3.81h-1.76Z"/>
    <path class="cls-4" d="M122.43,170.15v-8.72h6.46v1.47h-4.7v1.93h4.38v1.47h-4.38v2.37h4.87v1.47h-6.63Z"/>
    <path class="cls-4" d="M138.41,170.15h-1.92l-.76-1.98h-3.49l-.72,1.98h-1.87l3.4-8.72h1.86l3.49,8.72ZM135.17,166.7l-1.2-3.24-1.18,3.24h2.38Z"/>
    <path class="cls-4" d="M139.35,170.15v-8.72h3.71c.93,0,1.61.08,2.03.24.42.16.76.43,1.01.83.25.4.38.86.38,1.37,0,.65-.19,1.19-.58,1.62-.38.43-.96.69-1.72.81.38.22.69.47.94.73.25.27.58.74,1,1.42l1.06,1.7h-2.11l-1.27-1.9c-.45-.68-.76-1.1-.93-1.28-.17-.18-.34-.3-.53-.36s-.48-.1-.89-.1h-.36v3.64h-1.76ZM141.11,165.12h1.3c.84,0,1.37-.04,1.58-.11s.37-.19.49-.37c.12-.17.18-.39.18-.65,0-.29-.08-.53-.24-.71-.16-.18-.38-.29-.66-.34-.14-.02-.57-.03-1.28-.03h-1.37v2.21Z"/>
    <path class="cls-4" d="M150.11,170.15v-7.24h-2.59v-1.47h6.93v1.47h-2.58v7.24h-1.76Z"/>
    <path class="cls-4" d="M70.69,184.77v-3.67l-3.19-5.05h2.06l2.05,3.45,2.01-3.45h2.03l-3.21,5.06v3.66h-1.75Z"/>
    <path class="cls-4" d="M76.17,180.46c0-.89.13-1.63.4-2.24.2-.44.47-.84.81-1.2.34-.35.72-.61,1.13-.79.54-.23,1.17-.34,1.88-.34,1.28,0,2.31.4,3.08,1.2.77.8,1.16,1.91,1.16,3.32s-.38,2.51-1.15,3.3-1.79,1.19-3.07,1.19-2.33-.4-3.09-1.19-1.15-1.88-1.15-3.27ZM77.99,180.4c0,.99.23,1.74.68,2.25.46.51,1.03.76,1.74.76s1.28-.25,1.73-.76c.45-.51.68-1.26.68-2.27s-.22-1.75-.66-2.24c-.44-.49-1.02-.74-1.75-.74s-1.31.25-1.75.75c-.44.5-.67,1.25-.67,2.25Z"/>
    <path class="cls-4" d="M85.99,176.05h1.76v4.72c0,.75.02,1.23.07,1.46.08.36.25.64.54.86.28.22.67.32,1.16.32s.88-.1,1.13-.31c.25-.2.41-.46.46-.75.05-.3.08-.79.08-1.48v-4.82h1.76v4.58c0,1.05-.05,1.79-.14,2.22-.09.43-.27.8-.53,1.09-.26.3-.6.54-1.03.71-.43.18-.99.26-1.68.26-.83,0-1.46-.1-1.89-.29s-.77-.44-1.02-.75c-.25-.31-.41-.63-.49-.97-.12-.5-.17-1.24-.17-2.21v-4.65Z"/>
    <path class="cls-4" d="M94.8,184.77v-8.72h3.71c.93,0,1.61.08,2.03.24.42.16.76.43,1.01.83s.38.86.38,1.37c0,.65-.19,1.19-.58,1.62-.38.43-.96.69-1.72.81.38.22.69.47.94.73.25.27.58.74,1,1.42l1.06,1.7h-2.11l-1.27-1.9c-.45-.68-.76-1.1-.93-1.28s-.34-.3-.53-.36c-.19-.07-.48-.1-.89-.1h-.36v3.64h-1.76ZM96.56,179.73h1.3c.84,0,1.37-.04,1.58-.11.21-.07.38-.19.49-.37.12-.17.18-.39.18-.65,0-.29-.08-.53-.23-.71-.16-.18-.38-.29-.66-.34-.14-.02-.57-.03-1.28-.03h-1.37v2.21Z"/>
    <path class="cls-4" d="M107.03,184.77v-8.65h1.76v7.18h4.38v1.47h-6.14Z"/>
    <path class="cls-4" d="M114.36,184.77v-8.72h1.76v8.72h-1.76Z"/>
    <path class="cls-4" d="M117.81,184.77v-8.72h5.98v1.47h-4.22v2.06h3.64v1.47h-3.64v3.71h-1.76Z"/>
    <path class="cls-4" d="M125.24,184.77v-8.72h6.46v1.47h-4.7v1.93h4.38v1.47h-4.38v2.37h4.87v1.47h-6.63Z"/>
  </g>
  <g>
    <path class="cls-1" d="M53.19,130.63c3.05,6.12,6.68,11.89,10.74,17.38.14.19.25.39.38.59-.04.09-.08.18-.12.26-9.33-2.73-18.67-5.46-28.18-8.25v35.54c-.57-.45-.9-.68-1.2-.95-5.29-4.79-9.45-10.47-12.77-16.76-5.03-9.53-8.09-19.72-9.6-30.35-.81-5.68-1.06-11.44-1.6-17.15-.11-1.15.28-1.48,1.45-1.46,9.28.21,18.57.34,27.85.51,1.17.02,1.86-.44,2.27-1.56.78-2.15,1.66-4.27,2.59-6.66.15.44.27.63.27.82.15,10.04,3.53,19.18,7.93,28.02Z"/>
    <path class="cls-1" d="M49.33,90.01c-2.27,5.77-4.48,11.43-6.76,17.23-.83-2.82.99-14.22,3.03-18.77,1.25.51,2.44,1,3.73,1.54Z"/>
    <path class="cls-1" d="M122.27,53.43c-19.11-7.78-37.61-6.08-54.83,5.27-13.59,8.95-21.85,21.78-24.77,37.84-.69,3.8-.65,7.73-.94,11.6-.03.43,0,.86,0,1.41-1.56,0-3.01.02-4.46,0-9.88-.16-19.76-.32-29.64-.48-1.55-.02-1.54-.01-1.59-1.59-.44-16.83,3.21-32.71,11.24-47.5,9.07-16.69,22.05-29.51,38.82-38.45,11.13-5.93,23.01-9.43,35.57-10.51,13.99-1.2,27.63.51,40.82,5.43,18.22,6.79,32.96,18.14,44.24,33.96,8.41,11.79,13.72,24.88,16.03,39.17,1.02,6.28,1.48,12.61,1.09,18.97-.02.31-.07.61-.12,1.03-.59,0-1.14,0-1.68,0-10.95-.18-21.91-.37-32.86-.5-1.2-.01-1.51-.34-1.49-1.55.41-23.41-13.76-45.27-35.44-54.09Z"/>
    <path class="cls-1" d="M149.51,90.67c1.75,0,3.31-.02,4.86.03.18,0,.44.33.51.56,1.92,5.54,3,11.23,3.13,17.09-.1.03-.2.06-.31.09-2.7-5.84-5.39-11.69-8.2-17.77Z"/>
    <path class="cls-1" d="M165.12,174.69c-.33.31-.69.59-1.29,1.09v-35.59c-9.56,2.79-18.92,5.53-28.57,8.35,9.92-14.7,18.32-29.64,18.8-47.8.44.94.94,1.85,1.31,2.81.63,1.6,1.13,3.25,1.8,4.83.14.32.79.58,1.22.59,3.61.11,7.22.17,10.83.23,6.11.1,12.22.21,18.33.25,1.15,0,1.48.35,1.44,1.49-.49,14.68-3,28.94-8.98,42.44-3.57,8.06-8.36,15.3-14.89,21.3Z"/>
  </g>
  <g>
    <path class="cls-2" d="M18.07,99.88l.29-2.55,7.07.79c1.12.13,1.85.18,2.19.15.55-.05,1-.26,1.37-.64.37-.37.59-.92.67-1.63.08-.72-.01-1.29-.27-1.69-.26-.4-.62-.66-1.05-.79-.44-.12-1.17-.25-2.2-.36l-7.22-.81.29-2.55,6.85.77c1.57.17,2.67.37,3.3.58.63.21,1.15.53,1.55.95.4.42.7.96.9,1.61.19.65.24,1.47.12,2.47-.14,1.21-.38,2.1-.74,2.7-.36.59-.79,1.04-1.29,1.35-.5.31-1.01.5-1.53.55-.77.08-1.88.04-3.34-.12l-6.96-.78Z"/>
    <path class="cls-2" d="M29.32,83.27l-2.13-.59,1.48-5.33,5.04,1.4c.37.66.62,1.54.74,2.63.12,1.09.04,2.14-.24,3.15-.36,1.28-.94,2.32-1.76,3.12-.82.8-1.81,1.29-2.98,1.49-1.17.19-2.35.12-3.57-.22-1.32-.37-2.41-.96-3.29-1.78-.88-.82-1.44-1.82-1.7-3-.2-.9-.14-1.94.18-3.11.42-1.52,1.08-2.62,1.98-3.29.9-.67,1.96-.97,3.19-.89l-.21,2.59c-.67,0-1.25.19-1.74.56-.49.38-.84.92-1.04,1.63-.3,1.08-.19,2.04.34,2.87.53.83,1.49,1.45,2.88,1.83,1.5.42,2.72.41,3.65-.03.93-.44,1.54-1.18,1.83-2.23.14-.52.18-1.07.12-1.65-.06-.58-.19-1.1-.39-1.55l-1.6-.45-.79,2.83Z"/>
    <path class="cls-2" d="M40.54,68.2l-1.17,2.54-3.17-.24-2.13,4.61,2.27,2.2-1.14,2.47-9.85-9.99,1.14-2.47,14.05.88ZM33.84,70.32l-5.16-.45,3.7,3.6,1.45-3.15Z"/>
    <path class="cls-2" d="M40.5,68.48l-10.92-7.28,1.39-2.08,10.18.53-7.29-4.86,1.32-1.98,10.92,7.28-1.43,2.14-9.97-.48,7.12,4.75-1.32,1.98Z"/>
    <path class="cls-2" d="M37.09,50.34l3.18-3.45c.72-.78,1.33-1.31,1.83-1.61.67-.39,1.4-.59,2.19-.59.79,0,1.58.19,2.39.55.8.36,1.66.96,2.56,1.8.79.73,1.39,1.46,1.79,2.18.49.88.75,1.74.78,2.57.03.63-.12,1.31-.45,2.04-.25.54-.69,1.16-1.34,1.86l-3.28,3.55-9.64-8.91ZM40.46,49.96l6.39,5.9,1.3-1.41c.49-.53.81-.93.96-1.22.2-.38.3-.76.3-1.13,0-.38-.16-.83-.48-1.35-.31-.53-.84-1.13-1.59-1.82-.75-.69-1.38-1.15-1.89-1.39-.52-.24-.99-.35-1.43-.33-.44.02-.86.17-1.26.45-.3.21-.81.69-1.52,1.46l-.78.85Z"/>
    <path class="cls-2" d="M63.36,44.03l-2.2,1.72-2.71-1.66-4,3.14,1.02,2.99-2.14,1.68-4.21-13.38,2.14-1.67,12.11,7.19ZM56.44,42.86l-4.39-2.75,1.66,4.89,2.73-2.14Z"/>
    <path class="cls-2" d="M66.27,42.37l-5.68-11.84,2.31-1.11,2.23,4.66,4.53-2.18-2.23-4.66,2.31-1.11,5.68,11.84-2.31,1.11-2.48-5.18-4.53,2.18,2.48,5.18-2.31,1.11Z"/>
    <path class="cls-2" d="M76.33,37.67l-3.73-12.59,9.04-2.67.63,2.13-6.58,1.95.83,2.79,6.12-1.81.63,2.12-6.12,1.81,1.01,3.43,6.81-2.02.63,2.12-9.27,2.74Z"/>
    <path class="cls-2" d="M97.45,33.35l-2.77.35-1.48-2.82-5.04.65-.66,3.09-2.7.35,3.24-13.65,2.69-.35,6.72,12.37ZM92.1,28.8l-2.36-4.61-1.08,5.05,3.44-.44Z"/>
    <path class="cls-2" d="M97.11,33.47l.48-13.12,5.4.2c1.36.05,2.34.21,2.95.46.61.26,1.08.7,1.43,1.31.35.62.51,1.31.48,2.09-.04.98-.35,1.79-.93,2.41-.58.62-1.44.99-2.56,1.12.54.35.99.74,1.33,1.15.35.41.81,1.14,1.38,2.18l1.46,2.62-3.07-.11-1.75-2.92c-.62-1.04-1.05-1.7-1.28-1.98-.23-.27-.48-.47-.75-.58-.27-.11-.7-.17-1.29-.19l-.52-.02-.2,5.48-2.56-.09ZM99.95,25.99l1.9.07c1.23.04,2,.02,2.31-.08.31-.1.56-.27.74-.53.18-.26.28-.58.3-.98.02-.44-.08-.8-.3-1.08-.22-.28-.53-.46-.95-.55-.21-.04-.83-.08-1.87-.11l-2-.07-.12,3.33Z"/>
    <path class="cls-2" d="M111.1,34.57l2.06-10.71-3.7-.71.42-2.18,9.92,1.91-.42,2.18-3.7-.71-2.06,10.71-2.52-.49Z"/>
    <path class="cls-2" d="M121.78,37.34l4.57-12.3,2.41.89-4.57,12.3-2.41-.89Z"/>
    <path class="cls-2" d="M125.43,38.55l5.94-11.71,2.23,1.13.67,10.17,3.96-7.82,2.13,1.08-5.94,11.71-2.3-1.16-.7-9.95-3.87,7.63-2.13-1.08Z"/>
    <path class="cls-2" d="M137.29,39.85l2.17,1.26c-.38.79-.51,1.48-.37,2.08.14.6.52,1.13,1.15,1.58.67.48,1.28.7,1.83.65.55-.05.97-.27,1.25-.66.18-.25.27-.52.25-.8-.01-.28-.15-.61-.42-1-.18-.26-.63-.82-1.33-1.67-.91-1.09-1.44-2-1.59-2.75-.21-1.04-.01-1.99.59-2.83.39-.54.9-.94,1.54-1.2.64-.26,1.33-.31,2.06-.15.74.16,1.5.52,2.3,1.09,1.29.93,2.06,1.93,2.29,2.98.23,1.06.01,2.09-.66,3.09l-2.15-1.41c.31-.61.4-1.14.28-1.59-.12-.45-.47-.89-1.06-1.31-.61-.44-1.17-.65-1.7-.64-.34,0-.61.15-.81.42-.18.25-.23.54-.16.87.1.42.57,1.11,1.4,2.09.83.98,1.4,1.77,1.7,2.39.3.61.42,1.25.36,1.9-.06.66-.33,1.32-.81,1.99-.44.61-1.02,1.06-1.73,1.36-.71.3-1.46.36-2.25.18-.79-.17-1.63-.58-2.52-1.23-1.3-.94-2.08-1.97-2.33-3.1-.25-1.13-.01-2.33.71-3.62Z"/>
    <path class="cls-2" d="M145.72,51.82l7.55-7.87-2.72-2.61,1.54-1.6,7.29,7-1.54,1.6-2.71-2.61-7.55,7.87-1.85-1.78Z"/>
    <path class="cls-2" d="M150.53,56.73l9.96-8.55,1.67,1.95-9.96,8.55-1.67-1.95Z"/>
    <path class="cls-2" d="M154.83,62.06l8.92-6.28-2.17-3.08,1.82-1.28,5.81,8.26-1.82,1.28-2.17-3.08-8.92,6.28-1.48-2.1Z"/>
    <path class="cls-2" d="M170.24,61.39l1.16,2.29-6.34,3.22c-1.01.51-1.64.87-1.91,1.08-.43.34-.7.77-.8,1.29s0,1.09.33,1.73c.33.65.71,1.07,1.16,1.26.44.19.88.22,1.31.08.43-.14,1.11-.44,2.04-.91l6.48-3.29,1.16,2.29-6.15,3.12c-1.4.71-2.43,1.16-3.07,1.33-.64.17-1.25.19-1.82.06-.57-.13-1.11-.41-1.63-.85-.52-.44-1.01-1.1-1.46-2-.55-1.08-.84-1.97-.86-2.66-.03-.69.08-1.3.33-1.84.25-.53.57-.97.97-1.3.59-.49,1.55-1.07,2.86-1.73l6.24-3.17Z"/>
    <path class="cls-2" d="M164.45,80.2l10.33-3.51-1.21-3.57,2.1-.72,3.25,9.57-2.1.71-1.21-3.56-10.33,3.51-.83-2.43Z"/>
    <path class="cls-2" d="M166.52,86.42l12.89-2.5,1.8,9.25-2.18.42-1.31-6.73-2.86.56,1.22,6.26-2.17.42-1.22-6.26-3.51.68,1.35,6.97-2.17.42-1.84-9.49Z"/>
  </g>
  <g>
    <path class="cls-3" d="M107.65,101.63c-5.13-5.31-9.67-10.99-10.65-18.62-.62-4.84.87-9.1,4.16-12.69,1.55-1.7,4.83-2,7.6-.84,3.19,1.33,5.3,3.85,7.14,6.62,4.03,6.08,5.23,12.93,5.29,20.07.07,7.76-1.29,15.32-3.28,22.78-2.37,8.88-5.64,17.43-9.54,25.74-.11.23-.27.44-.69.57.14-.74.19-1.52.44-2.22,2.51-6.87,4.62-13.85,5.96-21.04,2.15-11.52,2.67-23.02-1-34.37-.63-1.95-1.49-3.85-2.36-5.71-.92-1.95-3.16-2.38-4.9-1.05-2.46,1.88-3.33,4.46-3.18,7.44.2,4.11,1.88,7.74,3.82,11.28.38.69.79,1.37,1.18,2.05Z"/>
    <path class="cls-4" d="M102.55,148.1c-.88-1.04-1.78-2.07-2.64-3.12-6.81-8.37-12.85-17.24-17.08-27.22-2.46-5.81-4.15-11.83-4.02-18.22.09-4.03.95-7.9,3.12-11.34.76-1.21,1.81-2.34,2.97-3.18,2.11-1.53,4.71-2.11,7.48.27,3.36,2.88,5,6.47,5.07,10.84.08,5.14-1.67,9.8-3.86,14.34-.26.53-.54,1.05-.93,1.81.45-2.12.91-3.96,1.22-5.83.4-2.4.51-4.81-.12-7.2-.62-2.35-1.9-4.17-4.2-5.15-1.84-.78-3.57.11-3.97,2.08-1.04,5.13-.84,10.25.11,15.37,2.09,11.21,7.15,21.12,13.39,30.5.86,1.29,1.78,2.53,2.62,3.83.42.65.74,1.36,1.1,2.04-.09.06-.17.11-.26.17Z"/>
  </g>
</svg>